<?xml version="1.0" encoding="UTF-8" standalone="no"?>
<!-- Created with Inkscape (http://www.inkscape.org/) -->

<svg
   xmlns:dc="http://purl.org/dc/elements/1.1/"
   xmlns:cc="http://creativecommons.org/ns#"
   xmlns:rdf="http://www.w3.org/1999/02/22-rdf-syntax-ns#"
   xmlns:svg="http://www.w3.org/2000/svg"
   xmlns="http://www.w3.org/2000/svg"
   xmlns:sodipodi="http://sodipodi.sourceforge.net/DTD/sodipodi-0.dtd"
   xmlns:inkscape="http://www.inkscape.org/namespaces/inkscape"
   width="158.75002mm"
   height="158.75002mm"
   viewBox="0 0 158.75002 158.75002"
   version="1.1"
   id="svg962"
   sodipodi:docname="logo.svg"
   inkscape:version="0.92.4 (5da689c313, 2019-01-14)">
  <defs
     id="defs956">
    <clipPath
       clipPathUnits="userSpaceOnUse"
       id="clipPath20">
      <path
         d="m 9750,5669.05 c 0,-1242.64 -1007.36,-2250 -2250,-2250 -1242.64,0 -2250,1007.36 -2250,2250 0,1242.64 1007.36,2250 2250,2250 1242.64,0 2250,-1007.36 2250,-2250 z"
         id="path18"
         inkscape:connector-curvature="0" />
    </clipPath>
    <linearGradient
       x1="0"
       y1="0"
       x2="1"
       y2="0"
       gradientUnits="userSpaceOnUse"
       gradientTransform="matrix(3181.98,3181.98,3181.98,-3181.98,5909.01,4078.06)"
       spreadMethod="pad"
       id="linearGradient30">
      <stop
         style="stop-opacity:1;stop-color:#3e4aa7"
         offset="0"
         id="stop22" />
      <stop
         style="stop-opacity:1;stop-color:#3e4aa7"
         offset="0.03872252"
         id="stop24" />
      <stop
         style="stop-opacity:1;stop-color:#00958f"
         offset="0.99998"
         id="stop26" />
      <stop
         style="stop-opacity:1;stop-color:#009688"
         offset="1"
         id="stop28" />
    </linearGradient>
  </defs>
  <sodipodi:namedview
     id="base"
     pagecolor="#ffffff"
     bordercolor="#666666"
     borderopacity="1.0"
     inkscape:pageopacity="0.0"
     inkscape:pageshadow="2"
     inkscape:zoom="0.7"
     inkscape:cx="141.34885"
     inkscape:cy="211.63426"
     inkscape:document-units="mm"
     inkscape:current-layer="layer1"
     showgrid="false"
     inkscape:window-width="1920"
     inkscape:window-height="1056"
     inkscape:window-x="0"
     inkscape:window-y="0"
     inkscape:window-maximized="1"
     fit-margin-top="0"
     fit-margin-left="0"
     fit-margin-right="0"
     fit-margin-bottom="0" />
  <metadata
     id="metadata959">
    <rdf:RDF>
      <cc:Work
         rdf:about="">
        <dc:format>image/svg+xml</dc:format>
        <dc:type
           rdf:resource="http://purl.org/dc/dcmitype/StillImage" />
        <dc:title></dc:title>
      </cc:Work>
    </rdf:RDF>
  </metadata>
  <g
     inkscape:label="Layer 1"
     inkscape:groupmode="layer"
     id="layer1"
     transform="translate(133.80357,90.803574)">
    <g
       transform="matrix(0.03527778,0,0,-0.03527778,-319.01192,188.56293)"
       id="g891">
      <g
         id="g14">
        <g
           clip-path="url(#clipPath20)"
           id="g16">
          <path
             inkscape:connector-curvature="0"
             id="path32"
             style="fill:url(#linearGradient30);fill-opacity:1;fill-rule:nonzero;stroke:none"
             d="m 9750,5669.05 c 0,-1242.64 -1007.36,-2250 -2250,-2250 -1242.64,0 -2250,1007.36 -2250,2250 0,1242.64 1007.36,2250 2250,2250 1242.64,0 2250,-1007.36 2250,-2250" />
        </g>
      </g>
      <path
         inkscape:connector-curvature="0"
         id="path34"
         style="fill:#ffffff;fill-opacity:1;fill-rule:nonzero;stroke:none"
         d="M 8257.57,6794.12 H 6742.43 c -264.64,0 -479.93,-215.29 -479.93,-479.92 0,-251.87 195.07,-458.89 442.05,-478.29 5.61,-1.02 11.36,-1.64 17.27,-1.64 158.78,0 287.95,-129.17 287.95,-287.95 v -767.88 c 0,-264.63 215.29,-479.92 479.93,-479.92 264.63,0 479.92,215.29 479.92,479.92 v 307.15 c 0,53.01 -42.97,95.99 -95.98,95.99 -53.01,0 -95.99,-42.98 -95.99,-95.99 v -307.15 c 0,-158.78 -129.17,-287.95 -287.95,-287.95 -158.78,0 -287.96,129.17 -287.96,287.95 v 767.88 c 0,251.87 -195.07,458.89 -442.04,478.29 -5.61,1.02 -11.37,1.64 -17.27,1.64 -158.79,0 -287.96,129.17 -287.96,287.95 0,158.78 129.17,287.95 287.96,287.95 h 1515.14 c 158.79,0 287.96,-129.17 287.96,-287.95 0,-158.78 -129.17,-287.95 -287.96,-287.95 -53,0 -95.98,-42.98 -95.98,-95.99 0,-53.01 42.98,-95.99 95.98,-95.99 264.64,0 479.93,215.3 479.93,479.93 0,264.63 -215.29,479.92 -479.93,479.92" />
      <path
         inkscape:connector-curvature="0"
         id="path36"
         style="fill:#ffffff;fill-opacity:1;fill-rule:nonzero;stroke:none"
         d="m 7873.64,5730.61 c -84.82,0 -153.58,-68.76 -153.58,-153.57 0,-84.82 68.76,-153.58 153.58,-153.58 84.82,0 153.57,68.76 153.57,153.58 0,84.81 -68.75,153.57 -153.57,153.57" />
    </g>
  </g>
</svg>
